<svg xmlns="http://www.w3.org/2000/svg" viewBox="0 0 100 100">
  <circle cx="50" cy="50" r="50" fill="#F7931A"/>
  <path fill="#FFFFFF" d="M67.5 43.8c.9-6.1-3.7-9.4-10.1-11.6l2.1-8.3-5-1.3-2 8.1c-1.3-.3-2.7-.6-4-.9l2-8.1-5-1.3-2.1 8.3c-1.1-.2-2.1-.5-3.2-.7l0 0-6.9-1.7-1.3 5.4s3.7.9 3.6.9c2 .5 2.4 1.9 2.3 2.9l-2.3 9.4c.1 0 .3.1.5.1-.2 0-.3-.1-.5-.1l-3.3 13.1c-.2.6-.9 1.4-2.2 1.1.1.1-3.6-.9-3.6-.9l-2.5 5.7 6.5 1.6c1.2.3 2.4.6 3.6.9l-2.1 8.4 5 1.3 2.1-8.3c1.4.4 2.7.7 4 1l-2.1 8.3 5 1.3 2.1-8.4c8.7 1.6 15.2.9 17.9-6.8 2.2-6.3-.1-9.9-4.6-12.3 3.3-.8 5.8-3 6.4-7.5zm-11.5 16.1c-1.6 6.3-12.2 2.9-15.6 2l2.8-11.1c3.5.9 14.5 2.6 12.8 9.1zm1.6-16.2c-1.4 5.7-10.3 2.8-13.1 2.1l2.5-10.1c2.9.7 12.1 2.1 10.6 8z"/>
</svg>